<?xml version="1.0" encoding="iso-8859-1"?>
<!-- Generator: Adobe Illustrator 19.0.0, SVG Export Plug-In . SVG Version: 6.00 Build 0)  -->
<svg version="1.1" id="Capa_1" xmlns="http://www.w3.org/2000/svg" xmlns:xlink="http://www.w3.org/1999/xlink" x="0px" y="0px"
	 viewBox="0 0 366.56 366.56" style="enable-background:new 0 0 366.56 366.56;" xml:space="preserve">
<g>
	<g>
		<path d="M295.312,179.832c-0.61-1.062-1.491-1.942-2.552-2.552l-79.36-46l-0.4-0.2l-78.96-45.4
			c-3.316-1.9-7.545-0.752-9.444,2.564c-0.599,1.046-0.915,2.23-0.916,3.436v183.24c0.022,3.813,3.107,6.898,6.92,6.92
			c1.434-0.002,2.831-0.449,4-1.28l78.8-45.28l79.36-46C296.074,187.376,297.216,183.146,295.312,179.832z"/>
	</g>
</g>
<g>
	<g>
		<path d="M183.28,0C82.057,0,0,82.057,0,183.28s82.057,183.28,183.28,183.28s183.28-82.057,183.28-183.28S284.503,0,183.28,0z
			 M183.28,332.52c-82.423,0-149.24-66.817-149.24-149.24S100.857,34.04,183.28,34.04s149.24,66.817,149.24,149.24
			S265.703,332.52,183.28,332.52z"/>
	</g>
</g>
<g>
</g>
<g>
</g>
<g>
</g>
<g>
</g>
<g>
</g>
<g>
</g>
<g>
</g>
<g>
</g>
<g>
</g>
<g>
</g>
<g>
</g>
<g>
</g>
<g>
</g>
<g>
</g>
<g>
</g>
</svg>
